<svg width="24" height="24" viewBox="0 0 24 24" fill="none" xmlns="http://www.w3.org/2000/svg">
<g filter="url(#filter0_dii_2845_5176)">
<path fill-rule="evenodd" clip-rule="evenodd" d="M11.0001 3.14293C6.66069 3.14293 3.14293 6.66069 3.14293 11.0001C3.14293 15.3395 6.66069 18.8572 11.0001 18.8572C15.3394 18.8572 18.8572 15.3395 18.8572 11.0001C18.8572 6.66069 15.3394 3.14293 11.0001 3.14293ZM1.71436 11.0001C1.71436 5.87171 5.87171 1.71436 11.0001 1.71436C16.1284 1.71436 20.2858 5.87171 20.2858 11.0001C20.2858 16.1284 16.1284 20.2858 11.0001 20.2858C5.87171 20.2858 1.71436 16.1284 1.71436 11.0001Z" fill="url(#paint0_radial_2845_5176)"/>
<path fill-rule="evenodd" clip-rule="evenodd" d="M11.0001 6.61239C11.3946 6.61239 11.7144 6.93219 11.7144 7.32668V14.6736C11.7144 15.0681 11.3946 15.3879 11.0001 15.3879C10.6056 15.3879 10.2858 15.0681 10.2858 14.6736V7.32668C10.2858 6.93219 10.6056 6.61239 11.0001 6.61239Z" fill="url(#paint1_radial_2845_5176)"/>
<path fill-rule="evenodd" clip-rule="evenodd" d="M6.61208 11.0001C6.61208 10.6056 6.93187 10.2858 7.32636 10.2858H14.6733C15.0678 10.2858 15.3876 10.6056 15.3876 11.0001C15.3876 11.3946 15.0678 11.7144 14.6733 11.7144H7.32636C6.93187 11.7144 6.61208 11.3946 6.61208 11.0001Z" fill="url(#paint2_radial_2845_5176)"/>
</g>
<defs>
<filter id="filter0_dii_2845_5176" x="0.703152" y="0.703152" width="22.6163" height="22.6161" filterUnits="userSpaceOnUse" color-interpolation-filters="sRGB">
<feFlood flood-opacity="0" result="BackgroundImageFix"/>
<feColorMatrix in="SourceAlpha" type="matrix" values="0 0 0 0 0 0 0 0 0 0 0 0 0 0 0 0 0 0 127 0" result="hardAlpha"/>
<feOffset dx="1.0112" dy="1.0112"/>
<feGaussianBlur stdDeviation="1.0112"/>
<feComposite in2="hardAlpha" operator="out"/>
<feColorMatrix type="matrix" values="0 0 0 0 0 0 0 0 0 0 0 0 0 0 0 0 0 0 0.2 0"/>
<feBlend mode="normal" in2="BackgroundImageFix" result="effect1_dropShadow_2845_5176"/>
<feBlend mode="normal" in="SourceGraphic" in2="effect1_dropShadow_2845_5176" result="shape"/>
<feColorMatrix in="SourceAlpha" type="matrix" values="0 0 0 0 0 0 0 0 0 0 0 0 0 0 0 0 0 0 127 0" result="hardAlpha"/>
<feOffset dx="1.0112" dy="1.0112"/>
<feGaussianBlur stdDeviation="0.713028"/>
<feComposite in2="hardAlpha" operator="arithmetic" k2="-1" k3="1"/>
<feColorMatrix type="matrix" values="0 0 0 0 1 0 0 0 0 0.826864 0 0 0 0 0.395947 0 0 0 1 0"/>
<feBlend mode="normal" in2="shape" result="effect2_innerShadow_2845_5176"/>
<feColorMatrix in="SourceAlpha" type="matrix" values="0 0 0 0 0 0 0 0 0 0 0 0 0 0 0 0 0 0 127 0" result="hardAlpha"/>
<feOffset dx="-1.0112" dy="-1.0112"/>
<feGaussianBlur stdDeviation="1.0112"/>
<feComposite in2="hardAlpha" operator="arithmetic" k2="-1" k3="1"/>
<feColorMatrix type="matrix" values="0 0 0 0 0 0 0 0 0 0 0 0 0 0 0 0 0 0 0.2 0"/>
<feBlend mode="normal" in2="effect2_innerShadow_2845_5176" result="effect3_innerShadow_2845_5176"/>
</filter>
<radialGradient id="paint0_radial_2845_5176" cx="0" cy="0" r="1" gradientUnits="userSpaceOnUse" gradientTransform="translate(11.0001 11.0001) scale(9.28572)">
<stop offset="0.473958" stop-color="#FFC640"/>
<stop offset="1" stop-color="#F2AF13"/>
</radialGradient>
<radialGradient id="paint1_radial_2845_5176" cx="0" cy="0" r="1" gradientUnits="userSpaceOnUse" gradientTransform="translate(11.0001 11.0001) scale(9.28572)">
<stop offset="0.473958" stop-color="#FFC640"/>
<stop offset="1" stop-color="#F2AF13"/>
</radialGradient>
<radialGradient id="paint2_radial_2845_5176" cx="0" cy="0" r="1" gradientUnits="userSpaceOnUse" gradientTransform="translate(11.0001 11.0001) scale(9.28572)">
<stop offset="0.473958" stop-color="#FFC640"/>
<stop offset="1" stop-color="#F2AF13"/>
</radialGradient>
</defs>
</svg>
