<svg width="22" height="22" viewBox="0 0 22 22" fill="none" xmlns="http://www.w3.org/2000/svg">
<g filter="url(#filter0_dii_2355_9061)">
<path fill-rule="evenodd" clip-rule="evenodd" d="M3.143 15.7139V3.58126H4.28585V15.7139C4.28585 16.6607 5.05337 17.4282 6.00014 17.4282H14.0001C14.9469 17.4282 15.7144 16.6607 15.7144 15.7139V3.58126H16.8573V15.7139C16.8573 17.2919 15.5781 18.5711 14.0001 18.5711H6.00014C4.42218 18.5711 3.143 17.2919 3.143 15.7139Z" fill="url(#paint0_radial_2355_9061)"/>
<path fill-rule="evenodd" clip-rule="evenodd" d="M1.42871 3.83874C1.42871 3.52315 1.68455 3.26731 2.00014 3.26731H18.0001C18.3157 3.26731 18.5716 3.52315 18.5716 3.83874C18.5716 4.15433 18.3157 4.41017 18.0001 4.41017H2.00014C1.68455 4.41017 1.42871 4.15433 1.42871 3.83874Z" fill="url(#paint1_radial_2355_9061)"/>
<path fill-rule="evenodd" clip-rule="evenodd" d="M9.3696 2.57108C8.77106 2.57108 8.28585 3.05629 8.28585 3.65482H7.143C7.143 2.42511 8.13988 1.42822 9.3696 1.42822H10.6307C11.8604 1.42822 12.8573 2.42511 12.8573 3.65482H11.7144C11.7144 3.05629 11.2292 2.57108 10.6307 2.57108H9.3696Z" fill="url(#paint2_radial_2355_9061)"/>
<path fill-rule="evenodd" clip-rule="evenodd" d="M7.71443 6.09949C8.03002 6.09949 8.28585 6.35533 8.28585 6.67092V14.91C8.28585 15.2256 8.03002 15.4814 7.71443 15.4814C7.39883 15.4814 7.143 15.2256 7.143 14.91V6.67092C7.143 6.35533 7.39883 6.09949 7.71443 6.09949Z" fill="url(#paint3_radial_2355_9061)"/>
<path fill-rule="evenodd" clip-rule="evenodd" d="M12.2859 6.09949C12.6014 6.09949 12.8573 6.35533 12.8573 6.67092V14.91C12.8573 15.2256 12.6014 15.4814 12.2859 15.4814C11.9703 15.4814 11.7144 15.2256 11.7144 14.91V6.67092C11.7144 6.35533 11.9703 6.09949 12.2859 6.09949Z" fill="url(#paint4_radial_2355_9061)"/>
</g>
<defs>
<filter id="filter0_dii_2355_9061" x="0.417508" y="0.417019" width="21.1876" height="21.1879" filterUnits="userSpaceOnUse" color-interpolation-filters="sRGB">
<feFlood flood-opacity="0" result="BackgroundImageFix"/>
<feColorMatrix in="SourceAlpha" type="matrix" values="0 0 0 0 0 0 0 0 0 0 0 0 0 0 0 0 0 0 127 0" result="hardAlpha"/>
<feOffset dx="1.0112" dy="1.0112"/>
<feGaussianBlur stdDeviation="1.0112"/>
<feComposite in2="hardAlpha" operator="out"/>
<feColorMatrix type="matrix" values="0 0 0 0 0 0 0 0 0 0 0 0 0 0 0 0 0 0 0.2 0"/>
<feBlend mode="normal" in2="BackgroundImageFix" result="effect1_dropShadow_2355_9061"/>
<feBlend mode="normal" in="SourceGraphic" in2="effect1_dropShadow_2355_9061" result="shape"/>
<feColorMatrix in="SourceAlpha" type="matrix" values="0 0 0 0 0 0 0 0 0 0 0 0 0 0 0 0 0 0 127 0" result="hardAlpha"/>
<feOffset dx="1.0112" dy="1.0112"/>
<feGaussianBlur stdDeviation="0.713028"/>
<feComposite in2="hardAlpha" operator="arithmetic" k2="-1" k3="1"/>
<feColorMatrix type="matrix" values="0 0 0 0 1 0 0 0 0 0.826864 0 0 0 0 0.395947 0 0 0 1 0"/>
<feBlend mode="normal" in2="shape" result="effect2_innerShadow_2355_9061"/>
<feColorMatrix in="SourceAlpha" type="matrix" values="0 0 0 0 0 0 0 0 0 0 0 0 0 0 0 0 0 0 127 0" result="hardAlpha"/>
<feOffset dx="-1.0112" dy="-1.0112"/>
<feGaussianBlur stdDeviation="1.0112"/>
<feComposite in2="hardAlpha" operator="arithmetic" k2="-1" k3="1"/>
<feColorMatrix type="matrix" values="0 0 0 0 0 0 0 0 0 0 0 0 0 0 0 0 0 0 0.2 0"/>
<feBlend mode="normal" in2="effect2_innerShadow_2355_9061" result="effect3_innerShadow_2355_9061"/>
</filter>
<radialGradient id="paint0_radial_2355_9061" cx="0" cy="0" r="1" gradientUnits="userSpaceOnUse" gradientTransform="translate(10.0001 9.99965) scale(8.57143)">
<stop offset="0.473958" stop-color="#FFC640"/>
<stop offset="1" stop-color="#F2AF13"/>
</radialGradient>
<radialGradient id="paint1_radial_2355_9061" cx="0" cy="0" r="1" gradientUnits="userSpaceOnUse" gradientTransform="translate(10.0001 9.99965) scale(8.57143)">
<stop offset="0.473958" stop-color="#FFC640"/>
<stop offset="1" stop-color="#F2AF13"/>
</radialGradient>
<radialGradient id="paint2_radial_2355_9061" cx="0" cy="0" r="1" gradientUnits="userSpaceOnUse" gradientTransform="translate(10.0001 9.99965) scale(8.57143)">
<stop offset="0.473958" stop-color="#FFC640"/>
<stop offset="1" stop-color="#F2AF13"/>
</radialGradient>
<radialGradient id="paint3_radial_2355_9061" cx="0" cy="0" r="1" gradientUnits="userSpaceOnUse" gradientTransform="translate(10.0001 9.99965) scale(8.57143)">
<stop offset="0.473958" stop-color="#FFC640"/>
<stop offset="1" stop-color="#F2AF13"/>
</radialGradient>
<radialGradient id="paint4_radial_2355_9061" cx="0" cy="0" r="1" gradientUnits="userSpaceOnUse" gradientTransform="translate(10.0001 9.99965) scale(8.57143)">
<stop offset="0.473958" stop-color="#FFC640"/>
<stop offset="1" stop-color="#F2AF13"/>
</radialGradient>
</defs>
</svg>
