<svg width="114" height="78" viewBox="0 0 114 78" fill="none" xmlns="http://www.w3.org/2000/svg">
<g filter="url(#filter0_dii_2971_11249)">
<path fill-rule="evenodd" clip-rule="evenodd" d="M22.3154 62.529C23.0168 60.7688 21.7705 58.9821 19.975 58.3767C9.24423 54.7586 2.00034 47.8895 2.00034 40.0109C2.00034 28.3682 17.8196 18.9299 37.3337 18.9299C56.8477 18.9299 72.667 28.3682 72.667 40.0109C72.667 51.6536 56.8477 61.0919 37.3337 61.0919C36.3494 61.0919 35.3746 61.0679 34.4107 61.0208C32.4071 60.9229 30.6133 62.2426 29.6531 64.0039C27.3384 68.2496 22.8352 71.1303 17.6593 71.1303C16.4256 71.1303 16.2832 69.4648 17.3029 68.7705C19.5395 67.2474 21.3001 65.0771 22.3154 62.529Z" fill="url(#paint0_radial_2971_11249)"/>
</g>
<g filter="url(#filter1_dii_2971_11249)">
<path fill-rule="evenodd" clip-rule="evenodd" d="M87.6839 45.5991C86.9825 43.839 88.2288 42.0524 90.0242 41.447C100.755 37.829 108 30.9597 108 23.081C108 11.4383 92.1804 2 72.6663 2C53.1523 2 37.333 11.4383 37.333 23.081C37.333 34.7237 53.1523 44.162 72.6663 44.162C73.6505 44.162 74.6253 44.138 75.5891 44.0909C77.5926 43.993 79.3865 45.3127 80.3467 47.0739C82.6614 51.3196 87.1645 54.2004 92.3405 54.2004C93.574 54.2004 93.7164 52.5352 92.6968 51.8409C90.46 50.3178 88.6992 48.1474 87.6839 45.5991Z" fill="#3E3E3E"/>
</g>
<defs>
<filter id="filter0_dii_2971_11249" x="0" y="16.9299" width="78.667" height="60.2003" filterUnits="userSpaceOnUse" color-interpolation-filters="sRGB">
<feFlood flood-opacity="0" result="BackgroundImageFix"/>
<feColorMatrix in="SourceAlpha" type="matrix" values="0 0 0 0 0 0 0 0 0 0 0 0 0 0 0 0 0 0 127 0" result="hardAlpha"/>
<feOffset dx="2" dy="2"/>
<feGaussianBlur stdDeviation="2"/>
<feComposite in2="hardAlpha" operator="out"/>
<feColorMatrix type="matrix" values="0 0 0 0 0 0 0 0 0 0 0 0 0 0 0 0 0 0 0.2 0"/>
<feBlend mode="normal" in2="BackgroundImageFix" result="effect1_dropShadow_2971_11249"/>
<feBlend mode="normal" in="SourceGraphic" in2="effect1_dropShadow_2971_11249" result="shape"/>
<feColorMatrix in="SourceAlpha" type="matrix" values="0 0 0 0 0 0 0 0 0 0 0 0 0 0 0 0 0 0 127 0" result="hardAlpha"/>
<feOffset dx="2" dy="2"/>
<feGaussianBlur stdDeviation="2"/>
<feComposite in2="hardAlpha" operator="arithmetic" k2="-1" k3="1"/>
<feColorMatrix type="matrix" values="0 0 0 0 1 0 0 0 0 0.871019 0 0 0 0 0.55 0 0 0 1 0"/>
<feBlend mode="normal" in2="shape" result="effect2_innerShadow_2971_11249"/>
<feColorMatrix in="SourceAlpha" type="matrix" values="0 0 0 0 0 0 0 0 0 0 0 0 0 0 0 0 0 0 127 0" result="hardAlpha"/>
<feOffset dx="-2" dy="-2"/>
<feGaussianBlur stdDeviation="2"/>
<feComposite in2="hardAlpha" operator="arithmetic" k2="-1" k3="1"/>
<feColorMatrix type="matrix" values="0 0 0 0 0 0 0 0 0 0 0 0 0 0 0 0 0 0 0.2 0"/>
<feBlend mode="normal" in2="effect2_innerShadow_2971_11249" result="effect3_innerShadow_2971_11249"/>
</filter>
<filter id="filter1_dii_2971_11249" x="35.333" y="0" width="78.667" height="60.2003" filterUnits="userSpaceOnUse" color-interpolation-filters="sRGB">
<feFlood flood-opacity="0" result="BackgroundImageFix"/>
<feColorMatrix in="SourceAlpha" type="matrix" values="0 0 0 0 0 0 0 0 0 0 0 0 0 0 0 0 0 0 127 0" result="hardAlpha"/>
<feOffset dx="2" dy="2"/>
<feGaussianBlur stdDeviation="2"/>
<feComposite in2="hardAlpha" operator="out"/>
<feColorMatrix type="matrix" values="0 0 0 0 0 0 0 0 0 0 0 0 0 0 0 0 0 0 0.2 0"/>
<feBlend mode="normal" in2="BackgroundImageFix" result="effect1_dropShadow_2971_11249"/>
<feBlend mode="normal" in="SourceGraphic" in2="effect1_dropShadow_2971_11249" result="shape"/>
<feColorMatrix in="SourceAlpha" type="matrix" values="0 0 0 0 0 0 0 0 0 0 0 0 0 0 0 0 0 0 127 0" result="hardAlpha"/>
<feOffset dx="2" dy="2"/>
<feGaussianBlur stdDeviation="2"/>
<feComposite in2="hardAlpha" operator="arithmetic" k2="-1" k3="1"/>
<feColorMatrix type="matrix" values="0 0 0 0 0.396148 0 0 0 0 0.396148 0 0 0 0 0.396148 0 0 0 1 0"/>
<feBlend mode="normal" in2="shape" result="effect2_innerShadow_2971_11249"/>
<feColorMatrix in="SourceAlpha" type="matrix" values="0 0 0 0 0 0 0 0 0 0 0 0 0 0 0 0 0 0 127 0" result="hardAlpha"/>
<feOffset dx="-2" dy="-2"/>
<feGaussianBlur stdDeviation="2"/>
<feComposite in2="hardAlpha" operator="arithmetic" k2="-1" k3="1"/>
<feColorMatrix type="matrix" values="0 0 0 0 0 0 0 0 0 0 0 0 0 0 0 0 0 0 0.25 0"/>
<feBlend mode="normal" in2="effect2_innerShadow_2971_11249" result="effect3_innerShadow_2971_11249"/>
</filter>
<radialGradient id="paint0_radial_2971_11249" cx="0" cy="0" r="1" gradientUnits="userSpaceOnUse" gradientTransform="translate(-85.3403 -28.2244) rotate(180) scale(31.8 23.4902)">
<stop stop-color="#FFC942"/>
<stop offset="0.28" stop-color="#FEC73E"/>
<stop offset="0.57" stop-color="#FBC131"/>
<stop offset="0.86" stop-color="#F5B71D"/>
<stop offset="1" stop-color="#F2B110"/>
</radialGradient>
</defs>
</svg>
