<svg width="24" height="22" viewBox="0 0 24 22" fill="none" xmlns="http://www.w3.org/2000/svg">
<g filter="url(#filter0_dii_3170_605)">
<path fill-rule="evenodd" clip-rule="evenodd" d="M10.8527 5.79254C10.4004 5.77851 9.98311 5.54597 9.73322 5.16878C9.27093 4.47099 8.05338 3.45862 6.72472 3.08175C6.09024 2.90179 5.51433 2.89084 5.02068 3.04977C4.54805 3.20194 4.02566 3.54893 3.53812 4.31812C3.04831 5.09091 2.80275 6.5029 3.77757 8.66438C4.75242 10.8259 6.90338 13.5987 10.924 16.8209C12.6027 15.5267 15.015 13.3383 16.7592 10.9888C17.6422 9.79936 18.3074 8.63035 18.6452 7.56452C18.9807 6.50607 18.9622 5.65921 18.6504 4.98156C18.1598 3.9157 17.1813 3.04594 16.1106 2.86132C15.1559 2.6967 13.6918 3.01228 12.0087 5.23941C11.7359 5.60037 11.3049 5.80658 10.8527 5.79254ZM9.94986 3.34148C10.3479 3.69564 10.6728 4.06171 10.8959 4.39848C11.2064 3.9877 11.5181 3.62577 11.8295 3.30895C15.3101 -0.23231 18.7506 1.86323 19.9174 4.39848C21.9276 8.7666 15.2064 15.2966 11.7133 17.9733C11.2323 18.342 10.5682 18.3222 10.0949 17.9437C1.80431 11.3145 0.727094 6.14783 2.36009 3.57145C4.47821 0.229684 8.04854 1.64981 9.94986 3.34148Z" fill="#E6E6E6"/>
</g>
<defs>
<filter id="filter0_dii_3170_605" x="0.723604" y="0.438326" width="22.5323" height="20.7715" filterUnits="userSpaceOnUse" color-interpolation-filters="sRGB">
<feFlood flood-opacity="0" result="BackgroundImageFix"/>
<feColorMatrix in="SourceAlpha" type="matrix" values="0 0 0 0 0 0 0 0 0 0 0 0 0 0 0 0 0 0 127 0" result="hardAlpha"/>
<feOffset dx="0.990263" dy="0.990263"/>
<feGaussianBlur stdDeviation="0.990263"/>
<feComposite in2="hardAlpha" operator="out"/>
<feColorMatrix type="matrix" values="0 0 0 0 0 0 0 0 0 0 0 0 0 0 0 0 0 0 0.2 0"/>
<feBlend mode="normal" in2="BackgroundImageFix" result="effect1_dropShadow_3170_605"/>
<feBlend mode="normal" in="SourceGraphic" in2="effect1_dropShadow_3170_605" result="shape"/>
<feColorMatrix in="SourceAlpha" type="matrix" values="0 0 0 0 0 0 0 0 0 0 0 0 0 0 0 0 0 0 127 0" result="hardAlpha"/>
<feOffset dx="0.990263" dy="0.990263"/>
<feGaussianBlur stdDeviation="0.990263"/>
<feComposite in2="hardAlpha" operator="arithmetic" k2="-1" k3="1"/>
<feColorMatrix type="matrix" values="0 0 0 0 1 0 0 0 0 1 0 0 0 0 1 0 0 0 1 0"/>
<feBlend mode="normal" in2="shape" result="effect2_innerShadow_3170_605"/>
<feColorMatrix in="SourceAlpha" type="matrix" values="0 0 0 0 0 0 0 0 0 0 0 0 0 0 0 0 0 0 127 0" result="hardAlpha"/>
<feOffset dx="-0.990263" dy="-0.990263"/>
<feGaussianBlur stdDeviation="0.697368"/>
<feComposite in2="hardAlpha" operator="arithmetic" k2="-1" k3="1"/>
<feColorMatrix type="matrix" values="0 0 0 0 0.658648 0 0 0 0 0.658648 0 0 0 0 0.658648 0 0 0 0.7 0"/>
<feBlend mode="normal" in2="effect2_innerShadow_3170_605" result="effect3_innerShadow_3170_605"/>
</filter>
</defs>
</svg>
