<svg width="20" height="24" viewBox="0 0 20 24" fill="none" xmlns="http://www.w3.org/2000/svg">
<g filter="url(#filter0_dii_2995_2856)">
<path fill-rule="evenodd" clip-rule="evenodd" d="M9.69416 10.1229C6.68582 10.1229 4.28599 12.4799 4.28599 15.3403C4.28599 16.2666 4.53562 17.1354 4.97431 17.8894C4.97888 17.8973 4.99069 17.9111 5.01538 17.9215C6.44339 18.5224 8.02618 18.8572 9.69423 18.8572C11.3622 18.8572 12.9449 18.5225 14.3729 17.9216C14.3976 17.9112 14.4094 17.8974 14.414 17.8895C14.8527 17.1354 15.1023 16.2666 15.1023 15.3403C15.1023 12.4799 12.7025 10.1229 9.69416 10.1229ZM2.85742 15.3403C2.85742 11.6487 5.93982 8.69434 9.69416 8.69434C13.4485 8.69434 16.5309 11.6487 16.5309 15.3403C16.5309 16.5275 16.21 17.6432 15.6487 18.6079C15.4794 18.8989 15.221 19.1146 14.927 19.2383C13.3254 19.9122 11.5545 20.2858 9.69423 20.2858C7.83388 20.2858 6.06285 19.9122 4.46128 19.2382C4.16728 19.1145 3.9088 18.8988 3.73951 18.6078C3.17828 17.6431 2.85742 16.5275 2.85742 15.3403Z" fill="#E6E6E6"/>
<path fill-rule="evenodd" clip-rule="evenodd" d="M9.62664 3.14293C7.96644 3.14293 6.70799 4.38551 6.70799 5.81423C6.70799 7.24296 7.96644 8.48554 9.62664 8.48554C11.2868 8.48554 12.5453 7.24296 12.5453 5.81423C12.5453 4.38551 11.2868 3.14293 9.62664 3.14293ZM5.27942 5.81423C5.27942 3.50333 7.27401 1.71436 9.62664 1.71436C11.9793 1.71436 13.9739 3.50333 13.9739 5.81423C13.9739 8.12513 11.9793 9.91411 9.62664 9.91411C7.27401 9.91411 5.27942 8.12513 5.27942 5.81423Z" fill="#E6E6E6"/>
</g>
<defs>
<filter id="filter0_dii_2995_2856" x="1.86716" y="0.724092" width="17.6349" height="22.5326" filterUnits="userSpaceOnUse" color-interpolation-filters="sRGB">
<feFlood flood-opacity="0" result="BackgroundImageFix"/>
<feColorMatrix in="SourceAlpha" type="matrix" values="0 0 0 0 0 0 0 0 0 0 0 0 0 0 0 0 0 0 127 0" result="hardAlpha"/>
<feOffset dx="0.990263" dy="0.990263"/>
<feGaussianBlur stdDeviation="0.990263"/>
<feComposite in2="hardAlpha" operator="out"/>
<feColorMatrix type="matrix" values="0 0 0 0 0 0 0 0 0 0 0 0 0 0 0 0 0 0 0.2 0"/>
<feBlend mode="normal" in2="BackgroundImageFix" result="effect1_dropShadow_2995_2856"/>
<feBlend mode="normal" in="SourceGraphic" in2="effect1_dropShadow_2995_2856" result="shape"/>
<feColorMatrix in="SourceAlpha" type="matrix" values="0 0 0 0 0 0 0 0 0 0 0 0 0 0 0 0 0 0 127 0" result="hardAlpha"/>
<feOffset dx="0.990263" dy="0.990263"/>
<feGaussianBlur stdDeviation="0.990263"/>
<feComposite in2="hardAlpha" operator="arithmetic" k2="-1" k3="1"/>
<feColorMatrix type="matrix" values="0 0 0 0 1 0 0 0 0 1 0 0 0 0 1 0 0 0 1 0"/>
<feBlend mode="normal" in2="shape" result="effect2_innerShadow_2995_2856"/>
<feColorMatrix in="SourceAlpha" type="matrix" values="0 0 0 0 0 0 0 0 0 0 0 0 0 0 0 0 0 0 127 0" result="hardAlpha"/>
<feOffset dx="-0.990263" dy="-0.990263"/>
<feGaussianBlur stdDeviation="0.697368"/>
<feComposite in2="hardAlpha" operator="arithmetic" k2="-1" k3="1"/>
<feColorMatrix type="matrix" values="0 0 0 0 0.658648 0 0 0 0 0.658648 0 0 0 0 0.658648 0 0 0 0.7 0"/>
<feBlend mode="normal" in2="effect2_innerShadow_2995_2856" result="effect3_innerShadow_2995_2856"/>
</filter>
</defs>
</svg>
