<svg width="17" height="17" viewBox="0 0 17 17" fill="none" xmlns="http://www.w3.org/2000/svg">
<path d="M14.12 14.1496C13.7283 14.0204 13.3139 13.9734 12.9032 14.0114C12.4925 14.0494 12.0941 14.1718 11.7328 14.3708C11.3715 14.5697 11.0553 14.8409 10.8036 15.1677C10.5519 15.4944 10.3701 15.8696 10.2699 16.2697C10.2062 16.4446 10.0949 16.5984 9.94863 16.7136C9.80234 16.8287 9.62679 16.9008 9.44179 16.9216C9.2568 16.9424 9.06946 16.911 8.90127 16.8312C8.73308 16.7514 8.59056 16.6263 8.48965 16.4699C8.30384 16.1007 8.04407 15.7734 7.72597 15.5095C7.40788 15.2455 7.03868 15.0503 6.6415 14.9357C6.24433 14.8212 5.82769 14.7899 5.41787 14.8439C5.00805 14.898 4.61357 15.0361 4.25967 15.2497C4.08983 15.3296 3.90109 15.36 3.71474 15.3376C3.5284 15.3152 3.35201 15.2411 3.20596 15.1232C3.0599 15.0053 2.95029 14.8485 2.88906 14.6711C2.82783 14.4937 2.81751 14.3027 2.85976 14.1198C2.98899 13.7281 3.03598 13.3142 2.99795 12.9035C2.95992 12.4928 2.83752 12.0939 2.63857 11.7326C2.43962 11.3713 2.16843 11.0551 1.8417 10.8034C1.51496 10.5517 1.13974 10.3699 0.739646 10.2697C0.564718 10.206 0.411418 10.0947 0.296287 9.94842C0.181155 9.80214 0.109065 9.62658 0.0882792 9.44159C0.0674932 9.25659 0.098814 9.06974 0.178611 8.90155C0.258408 8.73336 0.383505 8.59084 0.539939 8.48993C0.909192 8.30412 1.23592 8.04386 1.4999 7.72577C1.76388 7.40767 1.95908 7.03847 2.07363 6.64129C2.18818 6.24412 2.21947 5.82748 2.16543 5.41766C2.11139 5.00784 1.97326 4.61385 1.75967 4.25995C1.68076 4.09099 1.65063 3.90312 1.67275 3.71796C1.69487 3.53279 1.76866 3.35771 1.88515 3.2121C2.00165 3.06648 2.15614 2.95596 2.33193 2.89374C2.50772 2.83151 2.69762 2.81966 2.87978 2.85956C3.27148 2.98878 3.68539 3.03626 4.09609 2.99823C4.50679 2.9602 4.90569 2.83781 5.26699 2.63885C5.62829 2.4399 5.94446 2.16871 6.19619 1.84198C6.44792 1.51524 6.62966 1.14002 6.72988 0.739928C6.79233 0.562518 6.90347 0.406305 7.05068 0.289244C7.19789 0.172183 7.375 0.098703 7.56191 0.0778185C7.74883 0.0569341 7.93791 0.0893963 8.10732 0.17108C8.27674 0.252764 8.41986 0.380481 8.51992 0.539733C8.70582 0.907603 8.96529 1.23323 9.28261 1.49628C9.59994 1.75932 9.9682 1.95407 10.3642 2.06854C10.7601 2.18301 11.1756 2.21495 11.5844 2.1618C11.9931 2.10866 12.3861 1.97187 12.7396 1.75995C12.9086 1.68104 13.0965 1.65091 13.2816 1.67303C13.4668 1.69516 13.6419 1.76845 13.7875 1.88495C13.9331 2.00144 14.0436 2.15642 14.1059 2.33221C14.1681 2.508 14.1799 2.69741 14.14 2.87958C14.0109 3.27194 13.9642 3.68708 14.0028 4.09833C14.0415 4.50957 14.1647 4.90828 14.3646 5.26971C14.5646 5.63114 14.8371 5.94718 15.1649 6.19842C15.4928 6.44967 15.8689 6.63058 16.2699 6.72967C16.4473 6.79212 16.6035 6.90327 16.7206 7.05047C16.8377 7.19768 16.9107 7.37528 16.9315 7.56219C16.9524 7.74911 16.9205 7.93819 16.8388 8.1076C16.7571 8.27702 16.6289 8.41965 16.4696 8.51971C16.1009 8.70472 15.7747 8.96402 15.5106 9.28094C15.2466 9.59787 15.0504 9.96547 14.935 10.3615C14.8195 10.7576 14.7873 11.1735 14.8397 11.5827C14.8922 11.9919 15.0281 12.3858 15.2396 12.7399C15.3213 12.9093 15.3537 13.098 15.3329 13.2849C15.3121 13.4717 15.2389 13.6489 15.122 13.7961C15.005 13.9433 14.8491 14.0548 14.6718 14.1174C14.4945 14.1799 14.3034 14.1908 14.12 14.1496Z" fill="url(#paint0_radial_3817_30866)"/>
<path d="M5.25977 8.70996L7.40977 10.86" stroke="#2A2A2A" stroke-width="2" stroke-miterlimit="10" stroke-linecap="round"/>
<path d="M11.7399 6.89001L7.41992 10.87" stroke="#2A2A2A" stroke-width="2" stroke-miterlimit="10" stroke-linecap="round"/>
<defs>
<radialGradient id="paint0_radial_3817_30866" cx="0" cy="0" r="1" gradientUnits="userSpaceOnUse" gradientTransform="translate(26.8557 24.1415) scale(6.28623 6.2864)">
<stop stop-color="#FFC640"/>
<stop offset="0.29" stop-color="#FEC43C"/>
<stop offset="0.6" stop-color="#FABE2F"/>
<stop offset="0.91" stop-color="#F4B31B"/>
<stop offset="1" stop-color="#F2AF13"/>
</radialGradient>
</defs>
</svg>
